<?xml version="1.0" standalone="no"?>
<!DOCTYPE svg PUBLIC "-//W3C//DTD SVG 20010904//EN"
 "http://www.w3.org/TR/2001/REC-SVG-20010904/DTD/svg10.dtd">
<svg version="1.0" xmlns="http://www.w3.org/2000/svg"
 width="673.000000pt" height="371.000000pt" viewBox="0 0 673.000000 371.000000"
 preserveAspectRatio="xMidYMid meet">

<g transform="translate(0.000000,371.000000) scale(0.100000,-0.100000)"
fill="#000000" stroke="none">
<path d="M239 3391 c-39 -39 -40 -90 -3 -134 l27 -32 -5 -736 -4 -736 -22 -28
c-24 -30 -29 -83 -11 -117 6 -11 26 -26 46 -34 65 -28 133 18 133 89 0 13 -11
41 -25 61 l-25 37 0 736 0 735 25 30 c35 42 34 91 -4 129 -22 21 -39 29 -66
29 -27 0 -44 -8 -66 -29z"/>
<path d="M1851 3369 c-61 -12 -127 -53 -157 -99 -36 -54 -52 -116 -60 -230
l-7 -100 -63 0 -64 0 0 -40 0 -40 65 0 65 0 2 -452 3 -453 47 -3 48 -3 2 453
3 453 93 3 92 3 0 39 0 40 -96 0 -97 0 5 103 c5 117 26 170 80 208 46 33 141
37 228 10 35 -11 65 -19 67 -18 1 2 5 21 9 43 6 40 5 41 -33 57 -40 16 -145
38 -172 36 -9 -1 -36 -5 -60 -10z"/>
<path d="M3385 3266 c-32 -75 41 -140 95 -86 44 44 14 120 -46 120 -30 0 -37
-5 -49 -34z"/>
<path d="M3828 3073 l-3 -128 -77 -3 -78 -3 0 -39 0 -39 78 -3 77 -3 5 -395
c5 -386 5 -396 28 -437 36 -69 106 -100 193 -85 43 7 44 8 47 50 l3 42 -59 0
c-68 0 -95 18 -112 78 -7 24 -10 158 -8 392 l3 355 83 3 82 3 0 39 0 40 -85 0
-85 0 0 130 0 130 -45 0 -44 0 -3 -127z"/>
<path d="M957 2946 c-60 -22 -115 -63 -150 -112 l-32 -46 -3 76 -3 76 -49 0
-50 0 0 -495 0 -495 50 0 50 0 0 350 0 351 30 58 c49 97 109 146 195 158 59 8
127 -18 159 -60 48 -65 49 -80 54 -479 l4 -378 44 0 45 0 -3 398 c-4 447 -5
451 -79 536 -61 69 -170 94 -262 62z"/>
<path d="M2749 2944 c-50 -15 -135 -84 -158 -128 -21 -39 -31 -22 -31 55 l0
69 -45 0 -45 0 0 -495 0 -495 50 0 50 0 0 354 0 354 33 63 c53 103 146 159
239 145 64 -10 106 -39 131 -94 21 -45 22 -63 27 -432 l5 -385 48 -3 47 -3 0
358 c0 379 -7 448 -49 531 -52 101 -176 145 -302 106z"/>
<path d="M4528 2947 c-95 -27 -176 -107 -217 -214 -47 -123 -54 -410 -12 -543
59 -189 207 -279 411 -250 78 11 132 34 185 81 40 36 42 45 15 77 l-20 24 -47
-35 c-161 -118 -371 -70 -444 101 -19 44 -44 226 -33 243 3 5 134 9 300 9
l294 0 0 43 c-1 87 -20 227 -40 279 -26 71 -80 133 -143 164 -62 32 -177 41
-249 21z m217 -107 c20 -12 47 -39 60 -59 30 -44 55 -139 55 -203 l0 -48 -246
0 -247 0 6 63 c9 95 34 155 86 207 25 25 62 51 81 57 55 19 161 10 205 -17z"/>
<path d="M2080 2445 l0 -495 50 0 50 0 0 495 0 495 -50 0 -50 0 0 -495z"/>
<path d="M3390 2445 l0 -495 45 0 45 0 0 495 0 495 -45 0 -45 0 0 -495z"/>
<path d="M4310 1593 c-105 -36 -156 -113 -167 -250 l-6 -82 -61 -3 -61 -3 0
-60 0 -60 62 -3 63 -3 2 -352 3 -352 75 0 75 0 5 350 5 350 85 5 84 5 -3 55
c-1 30 -5 58 -7 62 -3 5 -41 8 -85 8 l-79 0 0 50 c0 62 19 110 55 138 22 18
41 22 96 22 l69 0 0 64 c0 58 -2 64 -22 70 -42 11 -142 5 -188 -11z"/>
<path d="M2063 1535 c-158 -43 -265 -161 -310 -342 -23 -96 -23 -344 0 -433
47 -177 154 -297 299 -336 105 -27 253 -13 346 35 92 47 176 172 189 280 l6
51 -81 0 -81 0 -7 -37 c-12 -63 -40 -117 -78 -151 -46 -40 -71 -47 -171 -47
-96 0 -144 21 -192 83 -59 78 -75 140 -80 307 -7 215 19 316 104 397 46 44
107 68 177 68 125 0 197 -55 232 -176 l20 -69 78 -3 79 -3 -6 56 c-12 118
-100 246 -201 294 -92 43 -221 53 -323 26z"/>
<path d="M5134 1516 c-3 -8 -4 -225 -1 -483 4 -510 5 -523 61 -579 37 -37 89
-54 169 -54 l57 0 0 55 0 55 -43 0 c-54 0 -83 21 -97 68 -6 23 -10 211 -10
495 l0 457 -65 0 c-48 0 -67 -4 -71 -14z"/>
<path d="M4660 1356 l0 -95 -72 -3 -73 -3 -3 -62 -3 -62 73 -3 73 -3 5 -295
c6 -329 7 -333 76 -387 28 -21 50 -28 98 -31 33 -2 77 0 96 5 l35 9 0 65 0 64
-53 -3 c-94 -7 -92 -14 -92 305 l0 273 75 0 76 0 -3 63 -3 62 -72 3 -72 3 -3
92 -3 92 -77 3 -78 3 0 -95z"/>
<path d="M2995 1251 c-22 -10 -46 -25 -54 -34 -19 -24 -28 -21 -35 13 l-6 31
-72 -3 -73 -3 0 -415 0 -415 75 0 75 0 5 302 5 301 25 27 c42 45 79 59 153 58
l67 -1 0 73 c0 57 -3 74 -16 79 -31 12 -110 5 -149 -13z"/>
<path d="M3446 1254 c-95 -30 -186 -110 -206 -183 -17 -61 -17 -61 69 -61 l79
0 7 30 c12 53 90 100 167 100 44 0 106 -30 129 -61 11 -17 23 -52 26 -82 l5
-54 -113 -6 c-207 -12 -313 -58 -363 -158 -34 -69 -36 -162 -5 -226 71 -146
288 -189 441 -88 l38 25 14 -35 15 -35 77 0 76 0 -7 38 c-3 20 -10 163 -14
317 -5 173 -13 295 -20 320 -20 63 -103 137 -177 158 -73 21 -172 21 -238 1z
m272 -515 c3 -70 1 -79 -24 -108 -78 -93 -247 -106 -297 -22 -19 32 -23 102
-7 130 26 50 127 81 250 78 l75 -2 3 -76z"/>
<path d="M5823 1220 c-52 -11 -113 -42 -156 -79 -120 -106 -154 -376 -71 -561
65 -146 219 -219 405 -192 152 22 244 99 268 225 l8 47 -67 0 -68 0 -6 -32
c-17 -90 -87 -138 -202 -138 -45 0 -83 7 -110 19 -75 34 -130 126 -136 231
l-3 45 294 3 294 2 -5 93 c-8 158 -68 256 -191 312 -64 30 -179 41 -254 25z
m205 -122 c50 -24 86 -72 103 -140 20 -81 28 -78 -221 -78 l-220 0 0 28 c0 16
7 49 15 73 44 129 188 181 323 117z"/>
</g>
</svg>
